<?xml version="1.0" encoding="UTF-8"?>
<svg version="1.1" xmlns="http://www.w3.org/2000/svg" width="501" height="501">
<path d="M0 0 C3.55247432 0.87379409 4.94828114 2.4927342 6.9375 5.4765625 C7.61389058 8.49936996 7.39308841 10.28744363 6.9375 13.4765625 C6.2784668 14.01120117 5.61943359 14.54583984 4.94042969 15.09667969 C1.78275553 18.84863089 2.33433126 22.73483218 2.328125 27.4921875 C2.31158875 28.46315369 2.29505249 29.43411987 2.27801514 30.43450928 C2.22947881 33.53192433 2.20815143 36.62884823 2.1875 39.7265625 C2.15934507 41.82814979 2.12941832 43.92971414 2.09765625 46.03125 C2.0237181 51.17964708 1.97417771 56.32777058 1.9375 61.4765625 C2.81164551 61.74839355 3.68579102 62.02022461 4.58642578 62.30029297 C7.76351315 63.41549091 10.58105778 64.72653122 13.5546875 66.296875 C15.08222656 67.09931641 15.08222656 67.09931641 16.640625 67.91796875 C18.21070313 68.75134766 18.21070313 68.75134766 19.8125 69.6015625 C20.88242188 70.16488281 21.95234375 70.72820312 23.0546875 71.30859375 C25.68444017 72.69390989 28.31193083 74.08333846 30.9375 75.4765625 C31.55238281 75.05503906 32.16726562 74.63351563 32.80078125 74.19921875 C33.60902344 73.65136719 34.41726562 73.10351562 35.25 72.5390625 C36.05050781 71.99378906 36.85101563 71.44851562 37.67578125 70.88671875 C41.90677581 68.24874114 45.77957674 68.31718971 50.60253906 68.29956055 C51.38177231 68.29298935 52.16100555 68.28641815 52.96385193 68.27964783 C55.54361062 68.2599319 58.12331112 68.24825549 60.703125 68.23828125 C62.02634892 68.23216796 62.02634892 68.23216796 63.37630463 68.22593117 C68.04627752 68.2050768 72.71622109 68.19077285 77.38623047 68.18139648 C82.2026128 68.1703388 87.01853227 68.1359446 91.83475113 68.09622478 C95.54432008 68.07004145 99.25377908 68.06170309 102.96343231 68.05811501 C104.73839185 68.05325278 106.5133466 68.04164914 108.28821564 68.02307701 C110.77747445 67.9986505 113.26554009 67.99965672 115.75488281 68.0065918 C116.48241257 67.99378174 117.20994232 67.98097168 117.95951843 67.96777344 C124.34467286 68.03232669 127.86892857 70.36555429 132.99511719 73.89208984 C136.19686319 74.85551115 138.13174118 73.32661365 141.015625 71.828125 C142.75585938 70.93867188 142.75585938 70.93867188 144.53125 70.03125 C145.7501803 69.38836257 146.96892804 68.7451289 148.1875 68.1015625 C149.42112289 67.46468688 150.65549074 66.82925204 151.890625 66.1953125 C154.91389119 64.63644087 157.9287181 63.06316061 160.9375 61.4765625 C161.01158447 55.26524476 161.06607114 49.05418345 161.10229492 42.8425293 C161.1173936 40.72887696 161.13787426 38.61525602 161.16381836 36.50170898 C161.20015397 33.46590435 161.21721544 30.43051344 161.23046875 27.39453125 C161.24595261 26.44756882 161.26143646 25.50060638 161.27738953 24.52494812 C161.27761612 23.64426163 161.27784271 22.76357513 161.27807617 21.85620117 C161.28473801 21.08120773 161.29139984 20.30621429 161.29826355 19.50773621 C160.8437167 16.94854303 159.81596388 16.20330552 157.9375 14.4765625 C157.01195758 11.20156624 156.77910423 9.09574595 157.625 5.7890625 C159.16489086 3.07592146 160.1541776 1.90583616 162.9375 0.4765625 C167.18399943 -0.06390106 169.19573192 -0.00719929 172.8125 2.3515625 C175.32416318 4.86322568 175.85903796 5.77040413 176.25 9.2890625 C175.86659089 13.19983546 174.6831925 14.73087 171.9375 17.4765625 C171.2775 17.4765625 170.6175 17.4765625 169.9375 17.4765625 C169.9375 33.6465625 169.9375 49.8165625 169.9375 66.4765625 C166.4725 68.3740625 163.0075 70.2715625 159.4375 72.2265625 C158.36177734 72.81663086 157.28605469 73.40669922 156.17773438 74.01464844 C140.69374578 82.4765625 140.69374578 82.4765625 137.9375 82.4765625 C138.1025 83.3428125 138.2675 84.2090625 138.4375 85.1015625 C139.41251866 91.87097778 140.11060034 99.95726149 137.9375 106.4765625 C138.78453491 106.54387573 138.78453491 106.54387573 139.64868164 106.61254883 C151.99577323 107.60095622 164.33488705 108.66773632 176.66574097 109.84115601 C178.05342361 109.97292053 179.44122141 110.10347802 180.82913208 110.2328186 C182.7887722 110.41592823 184.74791461 110.60434074 186.70703125 110.79296875 C187.83729736 110.90068604 188.96756348 111.00840332 190.13208008 111.11938477 C192.9375 111.4765625 192.9375 111.4765625 195.9375 112.4765625 C195.9375 132.6065625 195.9375 152.7365625 195.9375 173.4765625 C197.2575 174.1365625 198.5775 174.7965625 199.9375 175.4765625 C201.48774464 178.57705178 201.22742015 181.05550468 200.9375 184.4765625 C199.4375 187.3515625 199.4375 187.3515625 196.9375 189.4765625 C193.3307862 190.60735597 190.17773826 190.86821669 186.5625 189.7265625 C184.25986089 187.95530165 183.0579595 186.23713821 182.6015625 183.35546875 C182.58867187 182.59105469 182.57578125 181.82664062 182.5625 181.0390625 C182.53414062 180.27722656 182.50578125 179.51539063 182.4765625 178.73046875 C182.9375 176.4765625 182.9375 176.4765625 184.93218994 174.66815186 C187.40027863 171.97079497 187.44907767 170.76090734 187.48339844 167.15722656 C187.50311707 166.09642883 187.52283569 165.0356311 187.54315186 163.94268799 C187.54438049 162.80402283 187.54560913 161.66535767 187.546875 160.4921875 C187.56341125 159.32145691 187.57994751 158.15072632 187.59698486 156.94451904 C187.64557081 153.20514739 187.66686033 149.46618274 187.6875 145.7265625 C187.71565066 143.19138566 187.74557679 140.65622786 187.77734375 138.12109375 C187.85133281 131.90632415 187.90291324 125.69166951 187.9375 119.4765625 C186.91406494 119.42250244 185.89062988 119.36844238 184.83618164 119.31274414 C174.32437182 118.73747797 163.85542348 117.90074515 153.375 116.9140625 C151.86265426 116.77382887 150.35028451 116.63385406 148.83789062 116.49414062 C145.20414728 116.15790927 141.57073458 115.81825306 137.9375 115.4765625 C137.56927124 117.18803467 137.56927124 117.18803467 137.19360352 118.93408203 C134.42097252 131.71431568 130.13009131 143.48891847 124.9375 155.4765625 C125.91626099 155.61952759 125.91626099 155.61952759 126.91479492 155.76538086 C130.91039864 156.70546596 134.52865603 158.25605813 138.30078125 159.85546875 C139.09276413 160.18699448 139.88474701 160.5185202 140.70072937 160.86009216 C143.21899836 161.9154137 145.7345095 162.97713748 148.25 164.0390625 C149.96141031 164.75758613 151.67299698 165.47568985 153.38476562 166.19335938 C157.57142089 167.94879166 161.75428283 169.71286211 165.9375 171.4765625 C165.9375 184.0165625 165.9375 196.5565625 165.9375 209.4765625 C167.2575 210.1365625 168.5775 210.7965625 169.9375 211.4765625 C171.74243104 215.55727615 172.27187929 217.54382027 170.75 221.7890625 C168.9375 224.4765625 168.9375 224.4765625 165.9375 226.4765625 C161.72571757 226.94453833 159.65150886 226.94222045 156.0625 224.6015625 C153.55083682 222.08989932 153.01596204 221.18272087 152.625 217.6640625 C152.9375 214.4765625 152.9375 214.4765625 154.93261719 212.24536133 C157.55303387 208.62649314 157.39876569 206.42098441 157.328125 201.98828125 C157.31813477 200.70139404 157.30814453 199.41450684 157.29785156 198.08862305 C157.26143555 196.46351807 157.22501953 194.83841309 157.1875 193.1640625 C157.105 187.9871875 157.0225 182.8103125 156.9375 177.4765625 C145.0575 172.5265625 133.1775 167.5765625 120.9375 162.4765625 C118.20356966 165.21049284 116.0177612 167.56668208 113.75 170.6015625 C105.26113892 181.61365192 95.69730697 191.93513431 83.9375 199.4765625 C69.35187916 192.7447375 55.46251593 176.91812201 46.9375 163.4765625 C46.9375 162.8165625 46.9375 162.1565625 46.9375 161.4765625 C45.83760742 161.92572021 44.73771484 162.37487793 43.60449219 162.83764648 C39.52047247 164.50458812 35.43501745 166.16798644 31.34912109 167.83032227 C29.58147509 168.55005998 27.81421893 169.2707559 26.04736328 169.99243164 C23.50655556 171.03003524 20.96436232 172.06417625 18.421875 173.09765625 C17.63319031 173.42060165 16.84450562 173.74354706 16.03192139 174.07627869 C15.29145569 174.37651443 14.55098999 174.67675018 13.78808594 174.98608398 C13.13966736 175.25033676 12.49124878 175.51458954 11.82318115 175.78684998 C9.9375 176.4765625 9.9375 176.4765625 5.9375 177.4765625 C5.9375 188.0365625 5.9375 198.5965625 5.9375 209.4765625 C7.2575 210.1365625 8.5775 210.7965625 9.9375 211.4765625 C11.55219184 214.70594617 11.51829278 217.98513003 10.9375 221.4765625 C8.875 224.4765625 8.875 224.4765625 5.9375 226.4765625 C1.63475091 227.16807575 -0.27195312 226.99213655 -3.9375 224.6015625 C-6.5008705 222.038192 -7.01425854 221.21626493 -7.25 217.6015625 C-7.06760688 214.56167714 -6.7313086 212.97977541 -5.0625 210.4765625 C-4.4025 210.1465625 -3.7425 209.8165625 -3.0625 209.4765625 C-2.5675 190.6665625 -2.5675 190.6665625 -2.0625 171.4765625 C0.87398437 170.26097656 3.81046875 169.04539062 6.8359375 167.79296875 C9.67227308 166.61825775 12.50850485 165.44329643 15.34472656 164.26831055 C17.31955286 163.45033997 19.29448738 162.63263064 21.26953125 161.81518555 C24.10445024 160.64179664 26.93898174 159.46747612 29.7734375 158.29296875 C30.65993988 157.92627579 31.54644226 157.55958282 32.45980835 157.18177795 C33.28050812 156.8415007 34.10120789 156.50122345 34.94677734 156.15063477 C35.67069672 155.8508522 36.39461609 155.55106964 37.14047241 155.24220276 C38.42460157 154.69508763 39.68903769 154.10079365 40.9375 153.4765625 C40.14085937 151.69765625 40.14085937 151.69765625 39.328125 149.8828125 C28.9375 126.23628382 28.9375 126.23628382 28.9375 114.4765625 C28.29014893 114.55696777 27.64279785 114.63737305 26.97583008 114.72021484 C15.41230861 116.14972345 3.84844468 117.54671886 -7.75 118.6640625 C-8.60295654 118.74769043 -9.45591309 118.83131836 -10.3347168 118.91748047 C-11.13562744 118.99240723 -11.93653809 119.06733398 -12.76171875 119.14453125 C-13.79558716 119.24157349 -13.79558716 119.24157349 -14.8503418 119.34057617 C-17.58294498 119.50855542 -20.32473866 119.4765625 -23.0625 119.4765625 C-23.0625 137.2965625 -23.0625 155.1165625 -23.0625 173.4765625 C-21.7425 174.1365625 -20.4225 174.7965625 -19.0625 175.4765625 C-17.94479742 178.43963862 -17.85067286 181.33174415 -18.0625 184.4765625 C-19.5 187.4765625 -19.5 187.4765625 -22.0625 189.4765625 C-26.14069558 190.83596103 -29.05847139 190.92517103 -33 189.1640625 C-35.29895209 187.2831017 -35.95586311 186.38210202 -36.30078125 183.453125 C-36.32527344 182.67710937 -36.34976563 181.90109375 -36.375 181.1015625 C-36.41238281 180.33070313 -36.44976562 179.55984375 -36.48828125 178.765625 C-36.0625 176.4765625 -36.0625 176.4765625 -34.07000732 174.70611572 C-31.48545373 171.83569044 -31.54870825 170.33534366 -31.51660156 166.51464844 C-31.48702362 164.71323395 -31.48702362 164.71323395 -31.45684814 162.87542725 C-31.45500519 160.93775482 -31.45500519 160.93775482 -31.453125 158.9609375 C-31.43813974 157.62141929 -31.42141185 156.28191954 -31.40301514 154.94244385 C-31.35936689 151.42434837 -31.3393486 147.90650209 -31.32427979 144.38818359 C-31.30469921 140.79509765 -31.26273042 137.20228048 -31.22265625 133.609375 C-31.14738217 126.56520661 -31.09707398 119.52105775 -31.0625 112.4765625 C-28.66863918 111.27963209 -26.80922905 111.15956548 -24.14135742 110.90405273 C-23.11656784 110.80402451 -22.09177826 110.70399628 -21.03593445 110.60093689 C-19.92450577 110.49672928 -18.81307709 110.39252167 -17.66796875 110.28515625 C-16.52846268 110.17559097 -15.3889566 110.0660257 -14.21492004 109.95314026 C-11.79995616 109.7218165 -9.3848035 109.49245653 -6.96948242 109.26489258 C-3.27539983 108.91645827 0.4179867 108.5612737 4.11132812 108.20507812 C6.45569077 107.98136812 8.80009067 107.75804805 11.14453125 107.53515625 C12.80256523 107.37580849 12.80256523 107.37580849 14.49409485 107.21324158 C15.52834091 107.11636551 16.56258698 107.01948944 17.62817383 106.91967773 C18.53481277 106.83386948 19.44145172 106.74806122 20.37556458 106.65965271 C22.90609138 106.47880714 25.40149543 106.44416929 27.9375 106.4765625 C27.93226318 105.85088379 27.92702637 105.22520508 27.92163086 104.58056641 C27.90088382 101.75424193 27.88784714 98.92793345 27.875 96.1015625 C27.86662109 95.11671875 27.85824219 94.131875 27.84960938 93.1171875 C27.84638672 92.17617187 27.84316406 91.23515625 27.83984375 90.265625 C27.83460693 89.39631348 27.82937012 88.52700195 27.82397461 87.63134766 C27.9375 85.4765625 27.9375 85.4765625 28.9375 83.4765625 C28.08518799 83.21302979 27.23287598 82.94949707 26.35473633 82.67797852 C22.82535863 81.43713636 19.60465092 79.93142192 16.26171875 78.25390625 C15.65109085 77.94836319 15.04046295 77.64282013 14.41133118 77.32801819 C13.13223461 76.68696933 11.85410256 76.04399259 10.5769043 75.39916992 C8.61542681 74.409231 6.6507658 73.42584649 4.68554688 72.44335938 C-4.91480045 67.62426205 -4.91480045 67.62426205 -6.0625 66.4765625 C-6.15569449 64.9417328 -6.179958 63.40264168 -6.17602539 61.86499023 C-6.17594986 60.88404892 -6.17587433 59.9031076 -6.17579651 58.8924408 C-6.17063522 57.8257869 -6.16547394 56.759133 -6.16015625 55.66015625 C-6.1587413 54.573965 -6.15732635 53.48777374 -6.15586853 52.3686676 C-6.15025048 48.88377175 -6.13769492 45.39893908 -6.125 41.9140625 C-6.11998733 39.55794363 -6.11542402 37.20182376 -6.11132812 34.84570312 C-6.10027519 29.05596786 -6.08351951 23.26626969 -6.0625 17.4765625 C-6.701875 17.1878125 -7.34125 16.8990625 -8 16.6015625 C-10.0625 15.4765625 -10.0625 15.4765625 -11.0625 13.4765625 C-11.74821429 6.50513393 -11.74821429 6.50513393 -9.0625 2.4765625 C-5.73362371 0.25731164 -3.92313492 -0.28234683 0 0 Z " fill="#498BE7" transform="translate(168.0625,137.5234375)"/>
<path d="M0 0 C1.53799261 -0.1641336 3.08123327 -0.27936843 4.625 -0.375 C5.48351562 -0.44460937 6.34203125 -0.51421875 7.2265625 -0.5859375 C10.3863531 0.08162389 10.69705332 0.60293372 12.6875 2.96875 C15.313892 5.83228801 17.09690301 6.48322641 20.9609375 6.8046875 C22.76500839 6.8573611 24.57016766 6.88014931 26.375 6.875 C27.30183594 6.895625 28.22867188 6.91625 29.18359375 6.9375 C31.45663414 6.98436681 33.72657785 7.00446394 36 7 C36 7.99 36 8.98 36 10 C33.69 10 31.38 10 29 10 C28.82523538 14.37449294 28.71898284 18.74808498 28.625 23.125 C28.57472656 24.3625 28.52445312 25.6 28.47265625 26.875 C28.44365234 28.67324219 28.44365234 28.67324219 28.4140625 30.5078125 C28.36693115 32.15740967 28.36693115 32.15740967 28.31884766 33.84033203 C29.06166548 37.28604826 29.47594529 37.65971823 32 39.8359375 C34.64317474 42.23490508 35.44594174 43.68594155 35.68115234 47.26123047 C35.68021214 48.88019367 35.64687835 50.4993714 35.5859375 52.1171875 C35.57744781 52.97434357 35.56895813 53.83149963 35.56021118 54.71463013 C35.52678564 57.43606523 35.45153295 60.15447008 35.375 62.875 C35.34488609 64.72651952 35.31751278 66.57808577 35.29296875 68.4296875 C35.22703066 72.95428174 35.12358939 77.47662825 35 82 C33.88588107 81.06866131 32.77512886 80.13329438 31.66577148 79.19628906 C31.04685532 78.67585022 30.42793915 78.15541138 29.79026794 77.61920166 C27.14257187 75.22450208 25.17912285 72.63005433 23.0625 69.75 C22.29035156 68.71359375 21.51820313 67.6771875 20.72265625 66.609375 C19 64 19 64 19 62 C17.90010742 62.44915771 16.80021484 62.89831543 15.66699219 63.36108398 C11.58297247 65.02802562 7.49751745 66.69142394 3.41162109 68.35375977 C1.64397509 69.07349748 -0.12328107 69.7941934 -1.89013672 70.51586914 C-4.43094444 71.55347274 -6.97313768 72.58761375 -9.515625 73.62109375 C-10.30430969 73.94403915 -11.09299438 74.26698456 -11.90557861 74.59971619 C-12.64604431 74.89995193 -13.38651001 75.20018768 -14.14941406 75.50952148 C-14.79783264 75.77377426 -15.44625122 76.03802704 -16.11431885 76.31028748 C-18 77 -18 77 -22 78 C-22 88.56 -22 99.12 -22 110 C-20.68 110.66 -19.36 111.32 -18 112 C-16.38530816 115.22938367 -16.41920722 118.50856753 -17 122 C-19.0625 125 -19.0625 125 -22 127 C-26.30274909 127.69151325 -28.20945312 127.51557405 -31.875 125.125 C-34.4383705 122.5616295 -34.95175854 121.73970243 -35.1875 118.125 C-35.00510688 115.08511464 -34.6688086 113.50321291 -33 111 C-32.01 110.505 -32.01 110.505 -31 110 C-30.67 97.46 -30.34 84.92 -30 72 C-27.06351563 70.78441406 -24.12703125 69.56882812 -21.1015625 68.31640625 C-18.26522692 67.14169525 -15.42899515 65.96673393 -12.59277344 64.79174805 C-10.61794714 63.97377747 -8.64301262 63.15606814 -6.66796875 62.33862305 C-3.83304976 61.16523414 -0.99851826 59.99091362 1.8359375 58.81640625 C2.72243988 58.44971329 3.60894226 58.08302032 4.52230835 57.70521545 C5.34300812 57.3649382 6.16370789 57.02466095 7.00927734 56.67407227 C7.73319672 56.3742897 8.45711609 56.07450714 9.20297241 55.76564026 C10.48710157 55.21852513 11.75153769 54.62423115 13 54 C12.20335937 52.22109375 12.20335937 52.22109375 11.390625 50.40625 C1 26.75972132 1 26.75972132 1 15 C0.35264893 15.08040527 -0.29470215 15.16081055 -0.96166992 15.24365234 C-12.52519139 16.67316095 -24.08905532 18.07015636 -35.6875 19.1875 C-36.54045654 19.27112793 -37.39341309 19.35475586 -38.2722168 19.44091797 C-39.07312744 19.51584473 -39.87403809 19.59077148 -40.69921875 19.66796875 C-41.38846436 19.73266357 -42.07770996 19.7973584 -42.7878418 19.86401367 C-45.52044498 20.03199292 -48.26223866 20 -51 20 C-51 37.82 -51 55.64 -51 74 C-49.68 74.66 -48.36 75.32 -47 76 C-45.88229742 78.96307612 -45.78817286 81.85518165 -46 85 C-47.4375 88 -47.4375 88 -50 90 C-54.07819558 91.35939853 -56.99597139 91.44860853 -60.9375 89.6875 C-63.23645209 87.8065392 -63.89336311 86.90553952 -64.23828125 83.9765625 C-64.26277344 83.20054687 -64.28726563 82.42453125 -64.3125 81.625 C-64.34988281 80.85414063 -64.38726562 80.08328125 -64.42578125 79.2890625 C-64 77 -64 77 -62.00750732 75.22955322 C-59.42295373 72.35912794 -59.48620825 70.85878116 -59.45410156 67.03808594 C-59.42452362 65.23667145 -59.42452362 65.23667145 -59.39434814 63.39886475 C-59.39250519 61.46119232 -59.39250519 61.46119232 -59.390625 59.484375 C-59.37563974 58.14485679 -59.35891185 56.80535704 -59.34051514 55.46588135 C-59.29686689 51.94778587 -59.2768486 48.42993959 -59.26177979 44.91162109 C-59.24219921 41.31853515 -59.20023042 37.72571798 -59.16015625 34.1328125 C-59.08488217 27.08864411 -59.03457398 20.04449525 -59 13 C-56.60613918 11.80306959 -54.74672905 11.68300298 -52.07885742 11.42749023 C-51.05406784 11.32746201 -50.02927826 11.22743378 -48.97343445 11.12437439 C-47.86200577 11.02016678 -46.75057709 10.91595917 -45.60546875 10.80859375 C-44.46596268 10.69902847 -43.3264566 10.5894632 -42.15242004 10.47657776 C-39.73745616 10.245254 -37.3223035 10.01589403 -34.90698242 9.78833008 C-31.21289983 9.43989577 -27.5195133 9.0847112 -23.82617188 8.72851562 C-21.48180923 8.50480562 -19.13740933 8.28148555 -16.79296875 8.05859375 C-15.68761276 7.95236191 -14.58225677 7.84613007 -13.44340515 7.73667908 C-11.89203606 7.59136497 -11.89203606 7.59136497 -10.30932617 7.44311523 C-9.40268723 7.35730698 -8.49604828 7.27149872 -7.56193542 7.18309021 C-5.03140862 7.00224464 -2.53600457 6.96760679 0 7 C0 4.69 0 2.38 0 0 Z " fill="#41A8CA" transform="translate(196,237)"/>
<path d="M0 0 C4.07840796 -0.58262971 6.61553187 -0.70860446 10.3125 1.18359375 C14.13285142 4.24669694 16.06216831 7.17107872 16.81640625 12 C17.32205506 17.96798656 17.31374736 22.99785911 13.96484375 28.1015625 C11.75252214 30.31037805 9.56281293 32.21518385 7 34 C6.34 33.67 5.68 33.34 5 33 C4.19243704 30.39163059 3.50140947 27.83930011 2.875 25.1875 C2.69324219 24.46240234 2.51148438 23.73730469 2.32421875 22.99023438 C1.48366274 19.53637079 1 16.57424146 1 13 C0.35264893 13.08040527 -0.29470215 13.16081055 -0.96166992 13.24365234 C-12.52519139 14.67316095 -24.08905532 16.07015636 -35.6875 17.1875 C-36.54045654 17.27112793 -37.39341309 17.35475586 -38.2722168 17.44091797 C-39.07312744 17.51584473 -39.87403809 17.59077148 -40.69921875 17.66796875 C-41.38846436 17.73266357 -42.07770996 17.7973584 -42.7878418 17.86401367 C-45.52044498 18.03199292 -48.26223866 18 -51 18 C-51 35.82 -51 53.64 -51 72 C-49.68 72.66 -48.36 73.32 -47 74 C-45.88229742 76.96307612 -45.78817286 79.85518165 -46 83 C-47.4375 86 -47.4375 86 -50 88 C-54.07819558 89.35939853 -56.99597139 89.44860853 -60.9375 87.6875 C-63.23645209 85.8065392 -63.89336311 84.90553952 -64.23828125 81.9765625 C-64.26277344 81.20054687 -64.28726563 80.42453125 -64.3125 79.625 C-64.34988281 78.85414063 -64.38726562 78.08328125 -64.42578125 77.2890625 C-64 75 -64 75 -62.00750732 73.22955322 C-59.42295373 70.35912794 -59.48620825 68.85878116 -59.45410156 65.03808594 C-59.42452362 63.23667145 -59.42452362 63.23667145 -59.39434814 61.39886475 C-59.39250519 59.46119232 -59.39250519 59.46119232 -59.390625 57.484375 C-59.37563974 56.14485679 -59.35891185 54.80535704 -59.34051514 53.46588135 C-59.29686689 49.94778587 -59.2768486 46.42993959 -59.26177979 42.91162109 C-59.24219921 39.31853515 -59.20023042 35.72571798 -59.16015625 32.1328125 C-59.08488217 25.08864411 -59.03457398 18.04449525 -59 11 C-56.60613918 9.80306959 -54.74672905 9.68300298 -52.07885742 9.42749023 C-51.05406784 9.32746201 -50.02927826 9.22743378 -48.97343445 9.12437439 C-47.86200577 9.02016678 -46.75057709 8.91595917 -45.60546875 8.80859375 C-44.46596268 8.69902847 -43.3264566 8.5894632 -42.15242004 8.47657776 C-39.73745616 8.245254 -37.3223035 8.01589403 -34.90698242 7.78833008 C-31.21289983 7.43989577 -27.5195133 7.0847112 -23.82617188 6.72851562 C-21.48180923 6.50480562 -19.13740933 6.28148555 -16.79296875 6.05859375 C-15.68761276 5.95236191 -14.58225677 5.84613007 -13.44340515 5.73667908 C-11.89203606 5.59136497 -11.89203606 5.59136497 -10.30932617 5.44311523 C-9.40268723 5.35730698 -8.49604828 5.27149872 -7.56193542 5.18309021 C-5.03140862 5.00224464 -2.53600457 4.96760679 0 5 C0 3.35 0 1.7 0 0 Z " fill="#4DBAE6" transform="translate(196,239)"/>
<path d="M0 0 C0.83880203 0.07370316 1.67760406 0.14740631 2.54182434 0.2233429 C3.45316635 0.30972519 4.36450836 0.39610748 5.3034668 0.48510742 C6.24643112 0.5705632 7.18939545 0.65601898 8.16093445 0.74406433 C10.16614241 0.92714696 12.17108716 1.11313163 14.17578125 1.30175781 C17.20143952 1.58576588 20.2278928 1.85944963 23.25463867 2.1315918 C25.20847233 2.31130505 27.16225022 2.49162577 29.1159668 2.67260742 C30.44958 2.79307182 30.44958 2.79307182 31.81013489 2.91596985 C38.9329716 3.59410257 45.83173311 4.6844681 52.94018555 5.77807617 C52.94018555 25.90807617 52.94018555 46.03807617 52.94018555 66.77807617 C54.26018555 67.43807617 55.58018555 68.09807617 56.94018555 68.77807617 C58.49043019 71.87856546 58.2301057 74.35701835 57.94018555 77.77807617 C56.44018555 80.65307617 56.44018555 80.65307617 53.94018555 82.77807617 C50.33347174 83.90886964 47.18042381 84.16973036 43.56518555 83.02807617 C41.26254644 81.25681532 40.06064505 79.53865188 39.60424805 76.65698242 C39.59135742 75.89256836 39.5784668 75.1281543 39.56518555 74.34057617 C39.53682617 73.57874023 39.5084668 72.8169043 39.47924805 72.03198242 C39.94018555 69.77807617 39.94018555 69.77807617 41.93487549 67.96966553 C44.40296418 65.27230864 44.45176322 64.06242101 44.48608398 60.45874023 C44.50580261 59.3979425 44.52552124 58.33714478 44.5458374 57.24420166 C44.54706604 56.1055365 44.54829468 54.96687134 44.54956055 53.79370117 C44.5660968 52.62297058 44.58263306 51.45223999 44.59967041 50.24603271 C44.64825636 46.50666106 44.66954588 42.76769642 44.69018555 39.02807617 C44.7183362 36.49289933 44.74826234 33.95774153 44.7800293 31.42260742 C44.85401836 25.20783782 44.90559879 18.99318318 44.94018555 12.77807617 C43.89717285 12.72329102 42.85416016 12.66850586 41.77954102 12.61206055 C31.8439007 12.07071378 21.96552669 11.28913224 12.06518555 10.27807617 C10.72275994 10.14633826 9.38031201 10.0148275 8.0378418 9.88354492 C6.77069336 9.75592773 5.50354492 9.62831055 4.19799805 9.49682617 C3.06507324 9.38274414 1.93214844 9.26866211 0.76489258 9.15112305 C-2.05981445 8.77807617 -2.05981445 8.77807617 -5.05981445 7.77807617 C-5.38981445 5.46807617 -5.71981445 3.15807617 -6.05981445 0.77807617 C-3.68401639 -0.40982286 -2.62072056 -0.23880327 0 0 Z " fill="#4D74F7" transform="translate(311.059814453125,244.221923828125)"/>
<path d="M0 0 C3.85544798 1.99657127 5.59805092 3.39707638 8 7 C8.3359375 9.26953125 8.3359375 9.26953125 8.375 11.8125 C8.40335937 12.64394531 8.43171875 13.47539062 8.4609375 14.33203125 C8 17 8 17 5.90234375 19.64453125 C3.09543148 24.59553256 4.21482425 28.43238736 5.1875 33.875 C5.49359239 35.78904606 5.79958366 37.7031083 6.10546875 39.6171875 C6.25137451 40.45878418 6.39728027 41.30038086 6.54760742 42.16748047 C7.12218683 45.76503597 7.54812277 49.38498215 8 53 C-0.25 53 -8.5 53 -17 53 C-15.5 42 -15.5 42 -15.02539062 38.58203125 C-13.28144226 26.6676729 -13.28144226 26.6676729 -18 16 C-18.6197472 11.66176957 -18.3342226 9.62069912 -16.25 5.75 C-11.42297681 -0.14969501 -7.44308208 -1.08006869 0 0 Z " fill="#021E2C" transform="translate(255,234)"/>
<path d="M0 0 C0.33 0 0.66 0 1 0 C1.495 8.415 1.495 8.415 2 17 C2.33 11.39 2.66 5.78 3 0 C3.33 0 3.66 0 4 0 C4.33 7.26 4.66 14.52 5 22 C-2.52586277 25.90042311 -10.20079401 29.28543718 -18.03466797 32.50415039 C-20.02671445 33.32348777 -22.01538854 34.15065585 -24.00390625 34.97851562 C-25.27324612 35.50306753 -26.54277049 36.02717323 -27.8125 36.55078125 C-28.95332031 37.02169189 -30.09414062 37.49260254 -31.26953125 37.9777832 C-34 39 -34 39 -36 39 C-36 49.56 -36 60.12 -36 71 C-34.68 71.66 -33.36 72.32 -32 73 C-30.38530816 76.22938367 -30.41920722 79.50856753 -31 83 C-33.0625 86 -33.0625 86 -36 88 C-40.30274909 88.69151325 -42.20945312 88.51557405 -45.875 86.125 C-48.4383705 83.5616295 -48.95175854 82.73970243 -49.1875 79.125 C-49.00510688 76.08511464 -48.6688086 74.50321291 -47 72 C-46.01 71.505 -46.01 71.505 -45 71 C-44.67 58.46 -44.34 45.92 -44 33 C-38.21788131 30.57400749 -32.43461259 28.15128871 -26.64770508 25.73681641 C-24.67880692 24.91418234 -22.71070238 24.08964618 -20.7434082 23.26318359 C-17.91823684 22.07671133 -15.09029756 20.8970716 -12.26171875 19.71875 C-11.38037766 19.34689575 -10.49903656 18.9750415 -9.59098816 18.59191895 C-8.77036392 18.25156616 -7.94973969 17.91121338 -7.10424805 17.56054688 C-6.38254929 17.2585437 -5.66085052 16.95654053 -4.9172821 16.64538574 C-3 16 -3 16 0 16 C0 10.72 0 5.44 0 0 Z " fill="#4CB3E4" transform="translate(210,276)"/>
<path d="M0 0 C3.55247432 0.87379409 4.94828114 2.4927342 6.9375 5.4765625 C7.61389058 8.49936996 7.39308841 10.28744363 6.9375 13.4765625 C6.2784668 14.01120117 5.61943359 14.54583984 4.94042969 15.09667969 C1.78275553 18.84863089 2.33433126 22.73483218 2.328125 27.4921875 C2.31158875 28.46315369 2.29505249 29.43411987 2.27801514 30.43450928 C2.22947881 33.53192433 2.20815143 36.62884823 2.1875 39.7265625 C2.15934507 41.82814979 2.12941832 43.92971414 2.09765625 46.03125 C2.0237181 51.17964708 1.97417771 56.32777058 1.9375 61.4765625 C2.8130957 61.74839355 3.68869141 62.02022461 4.59082031 62.30029297 C7.75260116 63.41157544 10.53412692 64.71730825 13.484375 66.296875 C14.99837891 67.09931641 14.99837891 67.09931641 16.54296875 67.91796875 C18.09951172 68.75134766 18.09951172 68.75134766 19.6875 69.6015625 C21.76363852 70.7120552 23.84166973 71.81901906 25.921875 72.921875 C26.83678711 73.41187988 27.75169922 73.90188477 28.69433594 74.40673828 C30.82416449 75.62005416 30.82416449 75.62005416 32.9375 75.4765625 C31.49895135 80.99099897 31.49895135 80.99099897 29.3190918 82.8762207 C25.55104942 83.82605322 22.85250691 81.93453699 19.58203125 80.20703125 C18.87978928 79.85143631 18.1775473 79.49584137 17.45402527 79.12947083 C15.21144333 77.98909959 12.98106758 76.8267721 10.75 75.6640625 C9.23574828 74.8911615 7.72078163 74.11965945 6.20507812 73.34960938 C-4.8173979 67.7216646 -4.8173979 67.7216646 -6.0625 66.4765625 C-6.15569449 64.9417328 -6.179958 63.40264168 -6.17602539 61.86499023 C-6.17594986 60.88404892 -6.17587433 59.9031076 -6.17579651 58.8924408 C-6.17063522 57.8257869 -6.16547394 56.759133 -6.16015625 55.66015625 C-6.1587413 54.573965 -6.15732635 53.48777374 -6.15586853 52.3686676 C-6.15025048 48.88377175 -6.13769492 45.39893908 -6.125 41.9140625 C-6.11998733 39.55794363 -6.11542402 37.20182376 -6.11132812 34.84570312 C-6.10027519 29.05596786 -6.08351951 23.26626969 -6.0625 17.4765625 C-6.701875 17.1878125 -7.34125 16.8990625 -8 16.6015625 C-10.0625 15.4765625 -10.0625 15.4765625 -11.0625 13.4765625 C-11.74821429 6.50513393 -11.74821429 6.50513393 -9.0625 2.4765625 C-5.73362371 0.25731164 -3.92313492 -0.28234683 0 0 Z " fill="#4DBCE5" transform="translate(168.0625,137.5234375)"/>
<path d="M0 0 C2.75329021 1.79562405 4.52627461 3.05254922 6 6 C6.43244838 9.8920354 6.29425531 11.54880853 4.125 14.875 C3.073125 15.926875 3.073125 15.926875 2 17 C1.34 17 0.68 17 0 17 C0 33.17 0 49.34 0 66 C-3.465 67.8975 -6.93 69.795 -10.5 71.75 C-11.57572266 72.34006836 -12.65144531 72.93013672 -13.75976562 73.53808594 C-16.500834 75.03606463 -19.25026644 76.51800074 -22 78 C-22.77988281 78.43505859 -23.55976563 78.87011719 -24.36328125 79.31835938 C-29.46580048 82.06841844 -29.46580048 82.06841844 -32.14257812 81.72558594 C-34 81 -34 81 -35.25 78.9375 C-35.62125 77.9784375 -35.62125 77.9784375 -36 77 C-31.51553663 71.65577023 -25.90163279 69.16535378 -19.6875 66.1875 C-18.14739258 65.43436523 -18.14739258 65.43436523 -16.57617188 64.66601562 C-14.05508693 63.43478809 -11.52980841 62.21317477 -9 61 C-8.92591553 54.78868226 -8.87142886 48.57762095 -8.83520508 42.3659668 C-8.8201064 40.25231446 -8.79962574 38.13869352 -8.77368164 36.02514648 C-8.73734603 32.98934185 -8.72028456 29.95395094 -8.70703125 26.91796875 C-8.69154739 25.97100632 -8.67606354 25.02404388 -8.66011047 24.04838562 C-8.65988388 23.16769913 -8.65965729 22.28701263 -8.65942383 21.37963867 C-8.65276199 20.60464523 -8.64610016 19.82965179 -8.63923645 19.03117371 C-9.0937833 16.47198053 -10.12153612 15.72674302 -12 14 C-12.92554242 10.72500374 -13.15839577 8.61918345 -12.3125 5.3125 C-9.29934223 0.00360298 -5.95580061 -0.73141411 0 0 Z " fill="#4C73F7" transform="translate(338,138)"/>
<path d="M0 0 C2.87212902 1.00745239 5.66232325 2.18417587 8.4609375 3.37890625 C9.25150543 3.71043198 10.04207336 4.0419577 10.8565979 4.38352966 C13.36531025 5.43718016 15.87015776 6.49968653 18.375 7.5625 C20.08178326 8.28118819 21.78881207 8.99929351 23.49609375 9.71679688 C27.66743589 11.47005778 31.83342769 13.23525913 36 15 C36 27.54 36 40.08 36 53 C37.32 53.66 38.64 54.32 40 55 C41.80493104 59.08071365 42.33437929 61.06725777 40.8125 65.3125 C39 68 39 68 36 70 C31.78821757 70.46797583 29.71400886 70.46565795 26.125 68.125 C23.61333682 65.61333682 23.07846204 64.70615837 22.6875 61.1875 C23 58 23 58 24.99511719 55.76879883 C27.61553387 52.14993064 27.46126569 49.94442191 27.390625 45.51171875 C27.38213531 44.4569207 27.38213531 44.4569207 27.37347412 43.3808136 C27.35119769 41.14899752 27.30102373 38.91882539 27.25 36.6875 C27.22992343 35.16864309 27.21167468 33.64976084 27.1953125 32.13085938 C27.15136357 28.42004455 27.08239921 24.7101829 27 21 C21.93308545 18.83323982 16.8610899 16.67903368 11.78393555 14.53637695 C10.05688763 13.80544675 8.33128815 13.07108442 6.60717773 12.33325195 C4.13115683 11.27433821 1.65021857 10.22780719 -0.83203125 9.18359375 C-1.60400345 8.85032578 -2.37597565 8.5170578 -3.17134094 8.1736908 C-7.48048562 6.2384938 -7.48048562 6.2384938 -12 7 C-12 6.01 -12 5.02 -12 4 C-11.01 4 -10.02 4 -9 4 C-8.87625 3.360625 -8.7525 2.72125 -8.625 2.0625 C-8.41875 1.381875 -8.2125 0.70125 -8 0 C-5.02586086 -1.48706957 -3.23128084 -0.73446629 0 0 Z " fill="#4C7AF5" transform="translate(298,294)"/>
<path d="M0 0 C4.07840796 -0.58262971 6.61553187 -0.70860446 10.3125 1.18359375 C14.13285142 4.24669694 16.06216831 7.17107872 16.81640625 12 C17.32205506 17.96798656 17.31374736 22.99785911 13.96484375 28.1015625 C11.75252214 30.31037805 9.56281293 32.21518385 7 34 C6.34 33.67 5.68 33.34 5 33 C4.18236382 30.49337815 3.49291424 28.05649119 2.875 25.5 C2.69614258 24.77619141 2.51728516 24.05238281 2.33300781 23.30664062 C1.10649554 18.08753888 0.61624355 13.3725903 1 8 C3.31 8 5.62 8 8 8 C8 7.01 8 6.02 8 5 C5.36 5 2.72 5 0 5 C0 3.35 0 1.7 0 0 Z " fill="#4CCDE0" transform="translate(196,239)"/>
<path d="M0 0 C0.66 0 1.32 0 2 0 C1.99887207 0.72590332 1.99774414 1.45180664 1.99658203 2.19970703 C2.0087352 5.50906835 2.06643625 8.8161479 2.125 12.125 C2.12242187 13.26710938 2.11984375 14.40921875 2.1171875 15.5859375 C2.14296875 16.69453125 2.16875 17.803125 2.1953125 18.9453125 C2.20578613 19.96125488 2.21625977 20.97719727 2.22705078 22.02392578 C3.06895043 25.26547876 3.59320244 25.72271294 6.01367188 27.80859375 C8.63930681 30.21950401 9.44481543 31.69229445 9.68115234 35.26123047 C9.68021214 36.88019367 9.64687835 38.4993714 9.5859375 40.1171875 C9.57744781 40.97434357 9.56895813 41.83149963 9.56021118 42.71463013 C9.52678564 45.43606523 9.45153295 48.15447008 9.375 50.875 C9.34488609 52.72651952 9.31751278 54.57808577 9.29296875 56.4296875 C9.22703066 60.95428174 9.12358939 65.47662825 9 70 C8.01 69.34 7.02 68.68 6 68 C5.72354444 65.29643284 5.63105953 62.80897729 5.6640625 60.10546875 C5.65154597 58.49413663 5.63850867 56.88280848 5.625 55.27148438 C5.62107417 52.73024369 5.62498906 50.18939631 5.63964844 47.64819336 C5.64823722 45.19585689 5.62650148 42.74516102 5.6015625 40.29296875 C5.61490631 39.53759323 5.62825012 38.78221771 5.64199829 38.00395203 C5.58579594 33.97548232 5.32611953 32.34063278 2.49291992 29.38134766 C1.67025635 28.59550293 0.84759277 27.8096582 0 27 C-0.56762695 23.95385742 -0.56762695 23.95385742 -0.48828125 20.60546875 C-0.47216797 19.40341797 -0.45605469 18.20136719 -0.43945312 16.96289062 C-0.39755859 15.71701172 -0.35566406 14.47113281 -0.3125 13.1875 C-0.28994141 11.92228516 -0.26738281 10.65707031 -0.24414062 9.35351562 C-0.18529078 6.23447381 -0.1031137 3.11784098 0 0 Z " fill="#092939" transform="translate(222,249)"/>
<path d="M0 0 C0.99 0 1.98 0 3 0 C3.00410889 0.60996826 3.00821777 1.21993652 3.01245117 1.84838867 C3.04547575 4.62905792 3.11612568 7.40756157 3.1875 10.1875 C3.19330078 11.14720703 3.19910156 12.10691406 3.20507812 13.09570312 C3.2429769 18.94471881 3.2429769 18.94471881 6.53125 23.53125 C9.37873384 26.37873384 9.37206532 27.00512826 9.48828125 30.86328125 C9.45524396 32.680332 9.39589462 34.49706335 9.3125 36.3125 C9.27866211 37.70952148 9.27866211 37.70952148 9.24414062 39.13476562 C9.18542078 41.4248396 9.10336858 43.71157875 9 46 C8.34 46 7.68 46 7 46 C6.99742187 44.77023438 6.99484375 43.54046875 6.9921875 42.2734375 C6.95465076 40.64058921 6.91550301 39.0077774 6.875 37.375 C6.87757813 36.56675781 6.88015625 35.75851563 6.8828125 34.92578125 C6.83890256 30.3168231 6.83890256 30.3168231 4.61962891 26.47509766 C4.07483887 26.02956543 3.53004883 25.5840332 2.96875 25.125 C0.7622655 23.23175339 0.073641 22.37756554 -0.49169922 19.47900391 C-0.58901641 16.5075522 -0.52441397 13.59412374 -0.375 10.625 C-0.34792969 9.60277344 -0.32085937 8.58054688 -0.29296875 7.52734375 C-0.22255823 5.01603504 -0.12415134 2.50913041 0 0 Z " fill="#092744" transform="translate(288,206)"/>
<path d="M0 0 C0.99 0 1.98 0 3 0 C3.40830497 4.7311528 3.63036238 9.28296625 3 14 C1.4765625 15.66796875 1.4765625 15.66796875 -0.4375 16.8125 C-2.49355147 17.95944353 -2.49355147 17.95944353 -4 20 C-5.25597658 25.52772419 -5.04394979 31.36187023 -5 37 C-6.485 37.495 -6.485 37.495 -8 38 C-8.18991128 34.9553906 -8.32801567 31.92268634 -8.4375 28.875 C-8.49615234 28.0190625 -8.55480469 27.163125 -8.61523438 26.28125 C-8.78790239 19.86786675 -8.78790239 19.86786675 -6.44360352 17.28564453 C-5.17891212 16.31141398 -3.89938208 15.3561198 -2.60522461 14.42138672 C-0.64840453 12.95374704 -0.64840453 12.95374704 -0.09765625 9.5703125 C-0.08605469 8.43335938 -0.07445312 7.29640625 -0.0625 6.125 C-0.03285156 4.97257812 -0.00320313 3.82015625 0.02734375 2.6328125 C0.01832031 1.76398438 0.00929688 0.89515625 0 0 Z " fill="#093655" transform="translate(277,283)"/>
<path d="M0 0 C1.4536406 0.02642983 2.90702568 0.07390931 4.359375 0.140625 C5.47699219 0.16769531 5.47699219 0.16769531 6.6171875 0.1953125 C8.44847201 0.24226851 10.27909149 0.31400848 12.109375 0.390625 C12.109375 1.380625 12.109375 2.370625 12.109375 3.390625 C11.07296875 3.41640625 10.0365625 3.4421875 8.96875 3.46875 C7.59891699 3.52504451 6.22912695 3.58239155 4.859375 3.640625 C3.83650391 3.66189453 3.83650391 3.66189453 2.79296875 3.68359375 C-1.51691253 3.87198297 -1.51691253 3.87198297 -4.828125 6.421875 C-7.62554643 9.09214091 -9.5365074 8.80626697 -13.28515625 8.7421875 C-14.06246094 8.70867187 -14.83976563 8.67515625 -15.640625 8.640625 C-16.82978516 8.61355469 -16.82978516 8.61355469 -18.04296875 8.5859375 C-19.99270848 8.53895582 -21.94182378 8.46721544 -23.890625 8.390625 C-23.890625 7.400625 -23.890625 6.410625 -23.890625 5.390625 C-22.22773438 5.35195312 -22.22773438 5.35195312 -20.53125 5.3125 C-19.06766953 5.25620844 -17.60412938 5.19886133 -16.140625 5.140625 C-15.04621094 5.11935547 -15.04621094 5.11935547 -13.9296875 5.09765625 C-9.41701353 4.93464948 -9.41701353 4.93464948 -5.890625 2.359375 C-3.890625 0.390625 -3.890625 0.390625 0 0 Z " fill="#0B3141" transform="translate(219.890625,224.609375)"/>
<path d="M0 0 C0.66 0 1.32 0 2 0 C2.56549676 4.12603189 2.76910255 7.89137322 2 12 C0.03125 13.921875 0.03125 13.921875 -2.4375 15.6875 C-5.41101588 18.15766209 -6.8142061 19.99837364 -7.52441406 23.82714844 C-8.18777473 31.20293092 -8.17542556 38.60107021 -8 46 C-8.66 46 -9.32 46 -10 46 C-10.26362734 41.68867902 -10.42194822 37.37944768 -10.5625 33.0625 C-10.63791016 31.85013672 -10.71332031 30.63777344 -10.79101562 29.38867188 C-11.01130284 20.35689593 -11.01130284 20.35689593 -7.99389648 16.30834961 C-5.53125 13.96875 -5.53125 13.96875 -3.05273438 12.01757812 C0.03365616 8.9840468 0.04049223 6.04406688 0.09765625 1.87109375 C0.06542969 1.25363281 0.03320312 0.63617188 0 0 Z " fill="#03263A" transform="translate(280,206)"/>
<path d="M0 0 C1.53799261 -0.1641336 3.08123327 -0.27936843 4.625 -0.375 C5.48351562 -0.44460937 6.34203125 -0.51421875 7.2265625 -0.5859375 C10.3863531 0.08162389 10.69705332 0.60293372 12.6875 2.96875 C15.313892 5.83228801 17.09690301 6.48322641 20.9609375 6.8046875 C22.76500839 6.8573611 24.57016766 6.88014931 26.375 6.875 C27.30183594 6.895625 28.22867188 6.91625 29.18359375 6.9375 C31.45663414 6.98436681 33.72657785 7.00446394 36 7 C36 7.99 36 8.98 36 10 C32.64675035 10.20504349 29.29512597 10.32818195 25.9375 10.4375 C24.99455078 10.49615234 24.05160156 10.55480469 23.08007812 10.61523438 C16.05601673 10.78655295 16.05601673 10.78655295 12.91040039 8.44360352 C11.09375 6.53125 11.09375 6.53125 9.58007812 4.60742188 C6.79666366 1.77583954 3.82777371 2.06715392 0 2 C0 1.34 0 0.68 0 0 Z " fill="#0B3142" transform="translate(196,237)"/>
<path d="M0 0 C1.87945312 0.06960938 1.87945312 0.06960938 3.796875 0.140625 C5.06015625 0.17671875 6.3234375 0.2128125 7.625 0.25 C9.07132812 0.31960938 9.07132812 0.31960938 10.546875 0.390625 C10.216875 1.380625 9.886875 2.370625 9.546875 3.390625 C8.72703125 3.41640625 7.9071875 3.4421875 7.0625 3.46875 C5.44601562 3.55382812 5.44601562 3.55382812 3.796875 3.640625 C2.19585937 3.71023438 2.19585937 3.71023438 0.5625 3.78125 C-2.55730846 4.1086828 -2.55730846 4.1086828 -4.359375 6.421875 C-6.93598067 8.84465347 -8.67687007 8.80936903 -12.13671875 8.7421875 C-12.81863281 8.70867187 -13.50054687 8.67515625 -14.203125 8.640625 C-14.90050781 8.62257813 -15.59789062 8.60453125 -16.31640625 8.5859375 C-18.02924039 8.53901054 -19.74136324 8.46727105 -21.453125 8.390625 C-21.453125 7.400625 -21.453125 6.410625 -21.453125 5.390625 C-20.48890625 5.36484375 -19.5246875 5.3390625 -18.53125 5.3125 C-17.26796875 5.25578125 -16.0046875 5.1990625 -14.703125 5.140625 C-13.45015625 5.09421875 -12.1971875 5.0478125 -10.90625 5 C-7.39527973 4.72449299 -7.39527973 4.72449299 -5.453125 2.359375 C-3.453125 0.390625 -3.453125 0.390625 0 0 Z " fill="#0D2849" transform="translate(290.453125,270.609375)"/>
<path d="M0 0 C3.39517814 -0.1748936 6.78919487 -0.28103765 10.1875 -0.375 C11.14720703 -0.42527344 12.10691406 -0.47554688 13.09570312 -0.52734375 C20.15883592 -0.67398319 20.15883592 -0.67398319 22.63989258 1.31396484 C23.82202798 2.82952306 24.91521735 4.41330299 26 6 C28.15273543 7.10069633 28.15273543 7.10069633 30.3125 7.375 C31.529375 7.58125 32.74625 7.7875 34 8 C34 8.66 34 9.32 34 10 C28.3359375 10.5859375 28.3359375 10.5859375 26 10 C24.700625 8.53046875 24.700625 8.53046875 23.375 7.03125 C20.71987302 4.18773263 18.90696731 3.51757755 15.0390625 3.1953125 C13.23499161 3.1426389 11.42983234 3.11985069 9.625 3.125 C8.69816406 3.104375 7.77132813 3.08375 6.81640625 3.0625 C4.54336586 3.01563319 2.27342215 2.99553606 0 3 C0 2.01 0 1.02 0 0 Z " fill="#0A2641" transform="translate(269,257)"/>
<path d="M0 0 C1.32 0 2.64 0 4 0 C4 7.92 4 15.84 4 24 C2.68 24 1.36 24 0 24 C0 16.08 0 8.16 0 0 Z " fill="#1F3F79" transform="translate(277,229)"/>
<path d="M0 0 C0.99 0 1.98 0 3 0 C4.53646317 12.80385971 4.53646317 12.80385971 0.84375 18.08203125 C-1.875 20.6875 -1.875 20.6875 -4.6171875 22.94921875 C-6.89421464 24.90895523 -7.9171323 26.24304374 -9 29 C-9.66 27.35 -10.32 25.7 -11 24 C-10.28972656 23.44054687 -9.57945312 22.88109375 -8.84765625 22.3046875 C-3.00926318 17.22100639 -3.00926318 17.22100639 -0.11328125 10.21875 C0.09976591 6.78205476 0.16843501 3.43805589 0 0 Z " fill="#072834" transform="translate(213,249)"/>
<path d="M0 0 C0.99 0 1.98 0 3 0 C3 6.6 3 13.2 3 20 C2.01 20.33 1.02 20.66 0 21 C0 14.07 0 7.14 0 0 Z " fill="#0A2C4A" transform="translate(283,283)"/>
<path d="M0 0 C0.99 0 1.98 0 3 0 C3 6.27 3 12.54 3 19 C2.01 19 1.02 19 0 19 C0 12.73 0 6.46 0 0 Z " fill="#112C54" transform="translate(288,234)"/>
<path d="M0 0 C5.94 0 11.88 0 18 0 C18 0.99 18 1.98 18 3 C12.06 3 6.12 3 0 3 C0 2.01 0 1.02 0 0 Z " fill="#0E294A" transform="translate(269,263)"/>
<path d="M0 0 C0.99 0 1.98 0 3 0 C3.92017937 12.74618834 3.92017937 12.74618834 1.6640625 15.8203125 C0 16.875 0 16.875 -3 18 C-2.125 14.125 -2.125 14.125 -1 13 C-0.76518307 10.81707226 -0.58636677 8.62796826 -0.4375 6.4375 C-0.35371094 5.23996094 -0.26992188 4.04242188 -0.18359375 2.80859375 C-0.12300781 1.88175781 -0.06242187 0.95492188 0 0 Z " fill="#0B1C34" transform="translate(277,283)"/>
<path d="M0 0 C0.99 0 1.98 0 3 0 C3 4.95 3 9.9 3 15 C2.01 15.33 1.02 15.66 0 16 C0 10.72 0 5.44 0 0 Z " fill="#0C252D" transform="translate(213,249)"/>
<path d="M0 0 C1.32 0 2.64 0 4 0 C4 4.95 4 9.9 4 15 C3.01 15 2.02 15 1 15 C0.67 10.05 0.34 5.1 0 0 Z " fill="#072433" transform="translate(228,206)"/>
<path d="M0 0 C0.66 0 1.32 0 2 0 C2 4.95 2 9.9 2 15 C1.01 15 0.02 15 -1 15 C-1.02685412 12.68756208 -1.04632841 10.3750373 -1.0625 8.0625 C-1.07410156 6.77472656 -1.08570313 5.48695313 -1.09765625 4.16015625 C-1 1 -1 1 0 0 Z " fill="#093244" transform="translate(211,206)"/>
<path d="M0 0 C4.62 0 9.24 0 14 0 C14 0.99 14 1.98 14 3 C9.38 3 4.76 3 0 3 C0 2.01 0 1.02 0 0 Z " fill="#0E2A4A" transform="translate(269,271)"/>
<path d="M0 0 C4.62 0 9.24 0 14 0 C14 0.99 14 1.98 14 3 C9.38 3 4.76 3 0 3 C0 2.01 0 1.02 0 0 Z " fill="#082B3C" transform="translate(218,230)"/>
<path d="M0 0 C0.99 0 1.98 0 3 0 C3 4.29 3 8.58 3 13 C2.01 13 1.02 13 0 13 C0 8.71 0 4.42 0 0 Z " fill="#0D3A48" transform="translate(202,249)"/>
<path d="M0 0 C0.99 0 1.98 0 3 0 C3.08114106 1.77007714 3.13925505 3.54122098 3.1875 5.3125 C3.23970703 6.79169922 3.23970703 6.79169922 3.29296875 8.30078125 C3 11 3 11 0 14 C0 9.38 0 4.76 0 0 Z " fill="#10325C" transform="translate(288,283)"/>
<path d="M0 0 C0.99 0 1.98 0 3 0 C3 3.96 3 7.92 3 12 C2.01 12 1.02 12 0 12 C0 8.04 0 4.08 0 0 Z " fill="#0A2842" transform="translate(269,283)"/>
<path d="M0 0 C3.96 0 7.92 0 12 0 C12 0.99 12 1.98 12 3 C8.04 3 4.08 3 0 3 C0 2.01 0 1.02 0 0 Z " fill="#104150" transform="translate(196,225)"/>
<path d="M0 0 C2.64 0 5.28 0 8 0 C8 0.99 8 1.98 8 3 C5.36 3.33 2.72 3.66 0 4 C0 2.68 0 1.36 0 0 Z " fill="#184D66" transform="translate(196,244)"/>
<path d="M0 0 C0.66 0.99 1.32 1.98 2 3 C1.34 3.66 0.68 4.32 0 5 C-0.69748583 6.31747324 -1.36959957 7.64914193 -2 9 C-2.66 7.35 -3.32 5.7 -4 4 C-2.68 2.68 -1.36 1.36 0 0 Z " fill="#0E475C" transform="translate(206,269)"/>
<path d="M0 0 C2.64 0 5.28 0 8 0 C7.67 0.99 7.34 1.98 7 3 C4.69 3 2.38 3 0 3 C0 2.01 0 1.02 0 0 Z " fill="#102954" transform="translate(297,257)"/>
<path d="M0 0 C0.66 0.99 1.32 1.98 2 3 C0.02 4.98 -1.96 6.96 -4 9 C-4.66 8.67 -5.32 8.34 -6 8 C-5.566875 7.608125 -5.13375 7.21625 -4.6875 6.8125 C-2.73633776 4.71680722 -1.40989838 2.48410667 0 0 Z " fill="#061E32" transform="translate(279,216)"/>
<path d="M0 0 C1.98 0 3.96 0 6 0 C6 0.99 6 1.98 6 3 C4.02 3 2.04 3 0 3 C0 2.01 0 1.02 0 0 Z " fill="#0F2B53" transform="translate(293,276)"/>
</svg>
